<svg xmlns="http://www.w3.org/2000/svg" xmlns:xlink="http://www.w3.org/1999/xlink" width="320.674" height="230" viewBox="0 0 320.674 230">
  <defs>
    <linearGradient id="linear-gradient" x1="0.5" y1="1" x2="0.5" gradientUnits="objectBoundingBox">
      <stop offset="0" stop-color="gray" stop-opacity="0.251"/>
      <stop offset="0.54" stop-color="gray" stop-opacity="0.122"/>
      <stop offset="1" stop-color="gray" stop-opacity="0.102"/>
    </linearGradient>
    <linearGradient id="linear-gradient-2" x1="0.5" y1="1" x2="0.5" y2="0" xlink:href="#linear-gradient"/>
    <linearGradient id="linear-gradient-3" x1="0.5" y1="1" x2="0.5" y2="0" xlink:href="#linear-gradient"/>
    <linearGradient id="linear-gradient-4" x1="0.5" x2="0.5" y2="1" gradientUnits="objectBoundingBox">
      <stop offset="0" stop-color="#e0e0e0"/>
      <stop offset="0.31" stop-color="#fccc63"/>
      <stop offset="0.77" stop-color="#f55f44"/>
    </linearGradient>
    <linearGradient id="linear-gradient-5" x1="0.5" y1="0" x2="0.5" y2="1" xlink:href="#linear-gradient-4"/>
    <linearGradient id="linear-gradient-8" x1="0.5" y1="0.999" x2="0.5" y2="-0.001" xlink:href="#linear-gradient"/>
    <linearGradient id="linear-gradient-9" x1="0.503" y1="1" x2="0.503" y2="0.002" xlink:href="#linear-gradient"/>
  </defs>
  <g id="undraw_Outer_space_drqu" transform="translate(0.018 -0.014)">
    <path id="路径_730" data-name="路径 730" d="M312.337,304.773a39.523,39.523,0,0,1-7.825-.1c-28.565-3.158-67.463-2.26-99.171,17.387-43.853,27.166-112.578,3.91-142.894-8.743-23.164-9.664-35.189-33.333-27.966-55.55.1-.314.206-.627.316-.941,4.545-13.2,13.517-23.536,24.627-29.014,9.684-4.774,23.822-14.743,30.113-33.9a81.118,81.118,0,0,1,10.794-21.836c12.4-17.37,38.353-43.237,82.991-43.076a71.937,71.937,0,0,1,23,3.893c16.308,5.556,31.036,16.853,42.268,32.514,7.167,9.989,17.907,19.274,33.282,20.031,21.339,1.056,41.7,10.991,56.98,28.672.441.508.876,1.02,1.311,1.537C367.359,248.048,348.467,301.615,312.337,304.773Z" transform="translate(-32.41 -104.663)" fill="#222a36"/>
    <g id="组_1887" data-name="组 1887" transform="translate(74.466 189.135)" opacity="0.7">
      <circle id="椭圆_161" data-name="椭圆 161" cx="3.898" cy="3.898" r="3.898" fill="url(#linear-gradient)"/>
    </g>
    <circle id="椭圆_162" data-name="椭圆 162" cx="3.723" cy="3.723" r="3.723" transform="translate(74.641 189.31)" opacity="0.2"/>
    <circle id="椭圆_163" data-name="椭圆 163" cx="1.441" cy="1.441" r="1.441" transform="translate(55.921 115.557)" fill="#fff"/>
    <circle id="椭圆_164" data-name="椭圆 164" cx="1.441" cy="1.441" r="1.441" transform="translate(158.745 199.172)" fill="#fff"/>
    <circle id="椭圆_165" data-name="椭圆 165" cx="0.805" cy="0.805" r="0.805" transform="translate(98.647 207.152)" fill="#fff"/>
    <circle id="椭圆_166" data-name="椭圆 166" cx="0.805" cy="0.805" r="0.805" transform="translate(276.894 168.169)" fill="#fff"/>
    <circle id="椭圆_167" data-name="椭圆 167" cx="0.805" cy="0.805" r="0.805" transform="translate(230.849 95.854)" fill="#fff"/>
    <circle id="椭圆_168" data-name="椭圆 168" cx="0.805" cy="0.805" r="0.805" transform="translate(296.102 131.164)" fill="#fff"/>
    <circle id="椭圆_169" data-name="椭圆 169" cx="1.441" cy="1.441" r="1.441" transform="translate(81.345 68.382)" fill="#fff"/>
    <path id="路径_731" data-name="路径 731" d="M145.1,588.952h-1.282V587.67h-.523v1.282H142.01v.523h1.282v1.28h.523v-1.28H145.1Z" transform="translate(-101.908 -421.653)" fill="#fff"/>
    <path id="路径_732" data-name="路径 732" d="M259.1,586.952h-1.282V585.67h-.523v1.282H256.01v.523h1.282v1.28h.523v-1.28H259.1Z" transform="translate(-183.705 -420.218)" fill="#fff"/>
    <path id="路径_733" data-name="路径 733" d="M422.1,678.953h-1.282V677.67h-.523v1.283H419.01v.523h1.282v1.28h.523v-1.28H422.1Z" transform="translate(-300.66 -486.23)" fill="#fff"/>
    <path id="路径_734" data-name="路径 734" d="M653.4,129.225h-.585v-.585h-.237v.585h-.585v.237h.585v.585h.237v-.585h.585Z" transform="translate(-467.827 -92.291)" fill="#fff"/>
    <path id="路径_735" data-name="路径 735" d="M948.4,319.225h-.585v-.585h-.237v.585h-.585v.237h.585v.585h.237v-.585h.585Z" transform="translate(-679.495 -228.62)" fill="#fff"/>
    <path id="路径_736" data-name="路径 736" d="M774.4,443.225h-.585v-.585h-.237v.585h-.585v.237h.585v.585h.237v-.585h.585Z" transform="translate(-554.647 -317.592)" fill="#fff"/>
    <path id="路径_737" data-name="路径 737" d="M66.4,521.225h-.585v-.585h-.237v.585H64.99v.237h.585v.585h.237v-.585H66.4Z" transform="translate(-46.645 -373.558)" fill="#fff"/>
    <path id="路径_738" data-name="路径 738" d="M151.4,691.225h-.585v-.585h-.237v.585h-.585v.237h.585v.585h.237v-.585h.585Z" transform="translate(-107.634 -495.536)" fill="#fff"/>
    <path id="路径_739" data-name="路径 739" d="M418.4,154.225h-.585v-.585h-.237v.585h-.585v.237h.585v.585h.237v-.585h.585Z" transform="translate(-299.211 -110.229)" fill="#fff"/>
    <path id="路径_740" data-name="路径 740" d="M292.4,453.225h-.585v-.585h-.237v.585h-.585v.237h.585v.585h.237v-.585h.585Z" transform="translate(-208.803 -324.767)" fill="#fff"/>
    <path id="路径_741" data-name="路径 741" d="M319.4,367.225h-.585v-.585h-.237v.585h-.585v.237h.585v.585h.237v-.585h.585Z" transform="translate(-228.176 -263.06)" fill="#fff"/>
    <g id="组_1888" data-name="组 1888" transform="translate(208.072 153.718)" opacity="0.7">
      <circle id="椭圆_170" data-name="椭圆 170" cx="3.254" cy="3.254" r="3.254" fill="url(#linear-gradient-2)"/>
    </g>
    <circle id="椭圆_171" data-name="椭圆 171" cx="3.014" cy="3.014" r="3.014" transform="translate(208.312 153.958)" opacity="0.2"/>
    <circle id="椭圆_172" data-name="椭圆 172" cx="3.37" cy="3.37" r="3.37" transform="translate(216.072 174.819)" opacity="0.2"/>
    <g id="组_1889" data-name="组 1889" transform="translate(107.079 0.014)" opacity="0.7">
      <path id="路径_742" data-name="路径 742" d="M493.682,129.631a43.72,43.72,0,0,0-4.943-20.339,25.492,25.492,0,0,0-4.056-5.907,2.9,2.9,0,0,0-3.316-.638,3.005,3.005,0,0,0-1.161.749,26.073,26.073,0,0,0-3.955,5.686,43.907,43.907,0,0,0-5.189,20.9v4.373h-2.805V83.609a68.11,68.11,0,0,0-7.062-30.488,38.463,38.463,0,0,0-5.788-8.85,4.011,4.011,0,0,0-6.031,0,39.3,39.3,0,0,0-5.65,8.52,68.432,68.432,0,0,0-7.407,31.3v50.344h-2.424v-4.585a43.9,43.9,0,0,0-5.189-20.89,26.67,26.67,0,0,0-3.955-5.686,2.9,2.9,0,0,0-3.39-.616l.1.054a3.039,3.039,0,0,0-.946.661,25.654,25.654,0,0,0-4.054,5.907,43.72,43.72,0,0,0-4.943,20.339V205.61h8.655l-.955,6.246v18.681H426.3V211.856l-.946-6.249h8.531V136.4h2.424v68.909h6.912l-.992,6.548v18.681h7.079V211.856l-.992-6.556h9.322l-1,6.556v18.681h7.079V211.856l-.992-6.556h5.52V136.408h2.805V205.72h2.274v-.1h7.52l-.943,6.24v18.681h7.079V211.856l-.946-6.249h7.647Z" transform="translate(-411.519 -42.904)" fill="url(#linear-gradient-3)"/>
    </g>
    <path id="路径_743" data-name="路径 743" d="M419.373,564.578h-6.7l1.2-8.138h4.308Z" transform="translate(-296.111 -399.245)" fill="#535461"/>
    <g id="组_1890" data-name="组 1890" transform="translate(117.423 158.152)" opacity="0.1">
      <path id="路径_744" data-name="路径 744" d="M415.73,562.1H420.7l-.333-2.274h-4.308Z" transform="translate(-415.73 -559.83)"/>
    </g>
    <path id="路径_745" data-name="路径 745" d="M622.731,564.578h-6.7l1.195-8.138h4.311Z" transform="translate(-442.025 -399.245)" fill="#535461"/>
    <g id="组_1891" data-name="组 1891" transform="translate(174.866 158.152)" opacity="0.1">
      <path id="路径_746" data-name="路径 746" d="M619.08,562.1h4.977l-.333-2.274h-4.311Z" transform="translate(-619.08 -559.83)"/>
    </g>
    <path id="路径_747" data-name="路径 747" d="M496.48,564.578h-6.7l1.195-8.138h4.311Z" transform="translate(-351.439 -399.245)" fill="#535461"/>
    <g id="组_1892" data-name="组 1892" transform="translate(139.203 158.152)" opacity="0.1">
      <path id="路径_748" data-name="路径 748" d="M492.83,562.1h4.977l-.333-2.274h-4.311Z" transform="translate(-492.83 -559.83)"/>
    </g>
    <path id="路径_749" data-name="路径 749" d="M544.781,564.578h-6.7l1.195-8.138h4.308Z" transform="translate(-386.095 -399.245)" fill="#535461"/>
    <g id="组_1893" data-name="组 1893" transform="translate(152.847 158.152)" opacity="0.1">
      <path id="路径_750" data-name="路径 750" d="M541.13,562.1h4.977l-.336-2.274h-4.308Z" transform="translate(-541.13 -559.83)"/>
    </g>
    <rect id="矩形_1790" data-name="矩形 1790" width="47.87" height="1.915" transform="translate(123.262 89.939)" fill="#535461"/>
    <path id="路径_751" data-name="路径 751" d="M632.292,251.906a2.7,2.7,0,0,0-4,0,25.746,25.746,0,0,0-3.751,5.537,43.72,43.72,0,0,0-4.912,20.339v73.683h21.186V277.471a43.565,43.565,0,0,0-4.681-19.813A24.733,24.733,0,0,0,632.292,251.906Z" transform="translate(-453.762 -192.216)" fill="#e0e0e0"/>
    <path id="路径_752" data-name="路径 752" d="M427.749,251.906a2.7,2.7,0,0,1,4,0,25.755,25.755,0,0,1,3.754,5.537,43.754,43.754,0,0,1,4.912,20.339v73.683H419.229V277.471a43.565,43.565,0,0,1,4.681-19.813A24.655,24.655,0,0,1,427.749,251.906Z" transform="translate(-309.972 -192.216)" fill="#e0e0e0"/>
    <path id="路径_753" data-name="路径 753" d="M387.25,307.33l5.028.025v6.2H387.25Z" transform="translate(-277.872 -220.504)" fill="#535461"/>
    <path id="路径_754" data-name="路径 754" d="M444.02,307.33l5.028.025v6.2H444.02Z" transform="translate(-318.605 -220.504)" fill="#535461"/>
    <path id="路径_755" data-name="路径 755" d="M587.22,307.33l5.025.025v6.2H587.22Z" transform="translate(-421.354 -220.504)" fill="#535461"/>
    <path id="路径_756" data-name="路径 756" d="M643.99,307.33l5.025.025v6.2H643.99Z" transform="translate(-462.087 -220.504)" fill="#535461"/>
    <g id="组_1894" data-name="组 1894" transform="translate(118.576 58.707)" opacity="0.1">
      <path id="路径_757" data-name="路径 757" d="M459.175,257.1a25.755,25.755,0,0,0-3.754-5.537,2.686,2.686,0,0,0-3.2-.6,2.856,2.856,0,0,1,.808.6,25.747,25.747,0,0,1,3.751,5.537,43.714,43.714,0,0,1,4.912,20.339v73.677h2.4V277.444a43.751,43.751,0,0,0-4.912-20.342Z" transform="translate(-452.22 -250.678)"/>
    </g>
    <g id="组_1895" data-name="组 1895" transform="translate(165.626 58.91)" opacity="0.1">
      <path id="路径_758" data-name="路径 758" d="M625.847,257.823a25.746,25.746,0,0,1,3.751-5.537,2.8,2.8,0,0,1,.927-.661,2.7,2.7,0,0,0-3.079.661,25.652,25.652,0,0,0-3.754,5.537,43.755,43.755,0,0,0-4.912,20.339V351.85h2.155V278.168A43.72,43.72,0,0,1,625.847,257.823Z" transform="translate(-618.779 -251.399)"/>
    </g>
    <path id="路径_759" data-name="路径 759" d="M448.523,646.332h-.184a3.26,3.26,0,0,1-3.26-3.26V628.14h6.7v14.932A3.26,3.26,0,0,1,448.523,646.332Z" transform="translate(-328.521 -462.807)" fill="url(#linear-gradient-4)"/>
    <path id="路径_760" data-name="路径 760" d="M525.633,646.332h-.186a3.26,3.26,0,0,1-3.257-3.26V628.14h6.7v14.932a3.26,3.26,0,0,1-3.257,3.26Z" transform="translate(-383.849 -462.807)" fill="url(#linear-gradient-5)"/>
    <path id="路径_761" data-name="路径 761" d="M573.931,646.332h-.189a3.26,3.26,0,0,1-3.251-3.26V628.14h6.7v14.932A3.26,3.26,0,0,1,573.931,646.332Z" transform="translate(-418.505 -462.807)" fill="url(#linear-gradient-5)"/>
    <path id="路径_762" data-name="路径 762" d="M651.883,646.332h-.178a3.26,3.26,0,0,1-3.266-3.26V628.14h6.7v14.932a3.26,3.26,0,0,1-3.257,3.26Z" transform="translate(-474.435 -462.807)" fill="url(#linear-gradient-5)"/>
    <path id="路径_763" data-name="路径 763" d="M520.4,46.263a3.729,3.729,0,0,0-5.709,0,39.632,39.632,0,0,0-5.367,8.3,68.221,68.221,0,0,0-7.011,30.486v118.25h30.226V84.57a68,68,0,0,0-6.678-29.689A36.813,36.813,0,0,0,520.4,46.263Z" transform="translate(-369.584 -44.346)" fill="#eee"/>
    <rect id="矩形_1791" data-name="矩形 1791" width="15.774" height="7.229" rx="3.614" transform="translate(139.757 15.052)" fill="#535461"/>
    <g id="组_1896" data-name="组 1896" transform="translate(132.889 44.741)" opacity="0.1">
      <rect id="矩形_1792" data-name="矩形 1792" width="29.918" height="1.161"/>
    </g>
    <path id="路径_764" data-name="路径 764" d="M749.179,344.469h0a9.78,9.78,0,0,0-2.887-2.542h0a9.7,9.7,0,1,0-4.85,18.1,5.511,5.511,0,0,0,.613-.023,9.695,9.695,0,0,0,7.127-15.517Z" transform="translate(-534.211 -256.513)" fill="url(#linear-gradient-8)"/>
    <path id="路径_765" data-name="路径 765" d="M751.911,351.6a9.166,9.166,0,0,1-8.586,9.147c-.191,0-.386.02-.581.02a9.169,9.169,0,1,1,4.585-17.107h0a9.205,9.205,0,0,1,2.729,2.418h0A9.124,9.124,0,0,1,751.911,351.6Z" transform="translate(-535.517 -257.805)" opacity="0.2"/>
    <path id="路径_766" data-name="路径 766" d="M752.35,354.071a9.846,9.846,0,0,0-1.367.72,2.149,2.149,0,0,0-.732.655.847.847,0,0,0-.017.935,1.317,1.317,0,0,0,1.031.373,2.638,2.638,0,0,0,1.181-.119,2.542,2.542,0,0,0,.689-.5l.788-.715c.282-.249.565-.59.455-.941a.848.848,0,0,0-.669-.452,2.8,2.8,0,0,0-1.977.347" transform="translate(-547.379 -266.09)" opacity="0.1"/>
    <g id="组_1897" data-name="组 1897" transform="translate(201.197 96.933)" opacity="0.1">
      <circle id="椭圆_173" data-name="椭圆 173" cx="0.483" cy="0.483" r="0.483"/>
    </g>
    <g id="组_1898" data-name="组 1898" transform="translate(209.719 92.591)" opacity="0.1">
      <circle id="椭圆_174" data-name="椭圆 174" cx="1.768" cy="1.768" r="1.768"/>
    </g>
    <g id="组_1899" data-name="组 1899" transform="translate(209.733 85.857)" opacity="0.1">
      <path id="路径_767" data-name="路径 767" d="M779.745,349.208h0a2.412,2.412,0,1,1-2.732-2.418h0A9.206,9.206,0,0,1,779.745,349.208Z" transform="translate(-774.92 -346.79)"/>
    </g>
    <g id="组_1900" data-name="组 1900" transform="translate(207.79 98.219)" opacity="0.1">
      <path id="路径_768" data-name="路径 768" d="M774.972,391.409a9.144,9.144,0,0,1-6.915,3.87c0-.127-.017-.254-.017-.384a4.345,4.345,0,0,1,6.932-3.486Z" transform="translate(-768.04 -390.555)"/>
    </g>
    <path id="路径_769" data-name="路径 769" d="M319.112,532.568h0a6.822,6.822,0,0,0-2.017-1.785h0a6.78,6.78,0,1,0-3.39,12.627c.144,0,.283,0,.429-.014a6.78,6.78,0,0,0,4.972-10.828Z" transform="translate(-229.363 -392.282)" fill="url(#linear-gradient-9)"/>
    <path id="路径_770" data-name="路径 770" d="M321.2,537.619a6.4,6.4,0,0,1-5.99,6.381h-.405a6.4,6.4,0,1,1,3.2-11.935h0a6.4,6.4,0,0,1,1.9,1.695h0A6.361,6.361,0,0,1,321.2,537.619Z" transform="translate(-230.461 -393.258)" opacity="0.2"/>
    <path id="路径_771" data-name="路径 771" d="M321.509,539.369a6.634,6.634,0,0,0-.952.5,1.564,1.564,0,0,0-.511.458.6.6,0,0,0,0,.653.912.912,0,0,0,.717.26,1.839,1.839,0,0,0,.825-.082,1.778,1.778,0,0,0,.483-.35l.548-.5c.192-.175.4-.412.316-.655a.565.565,0,0,0-.466-.316,1.941,1.941,0,0,0-1.376.243" transform="translate(-238.738 -399.064)" opacity="0.1"/>
    <g id="组_1901" data-name="组 1901" transform="translate(80.139 146.548)" opacity="0.1">
      <circle id="椭圆_175" data-name="椭圆 175" cx="0.336" cy="0.336" r="0.336"/>
    </g>
    <g id="组_1902" data-name="组 1902" transform="translate(86.085 143.52)" opacity="0.1">
      <circle id="椭圆_176" data-name="椭圆 176" cx="1.234" cy="1.234" r="1.234"/>
    </g>
    <g id="组_1903" data-name="组 1903" transform="translate(86.062 138.814)" opacity="0.1">
      <path id="路径_772" data-name="路径 772" d="M340.51,535.955h0a1.695,1.695,0,1,1-1.907-1.695h0A6.4,6.4,0,0,1,340.51,535.955Z" transform="translate(-337.12 -534.26)"/>
    </g>
    <g id="组_1904" data-name="组 1904" transform="translate(84.751 147.432)" opacity="0.1">
      <path id="路径_773" data-name="路径 773" d="M337.3,565.38a6.381,6.381,0,0,1-4.825,2.7V567.8a3.031,3.031,0,0,1,4.836-2.432Z" transform="translate(-332.48 -564.77)"/>
    </g>
    <path id="路径_774" data-name="路径 774" d="M837.69,539.42l6.158,3.277-4.808,5.378" transform="translate(-601.07 -387.033)" fill="none"/>
    <circle id="椭圆_177" data-name="椭圆 177" cx="0.52" cy="0.52" r="0.52" transform="translate(269.21 120.458)" fill="#fff"/>
  </g>
</svg>
