<svg xmlns="http://www.w3.org/2000/svg" xmlns:xlink="http://www.w3.org/1999/xlink" width="36.541" height="30.858" viewBox="0 0 36.541 30.858">
  <defs>
    <clipPath id="clip">
      <use xlink:href="#fill"/>
    </clipPath>
    <clipPath id="clip-2">
      <use xlink:href="#fill-2"/>
    </clipPath>
    <clipPath id="clip-3">
      <use xlink:href="#fill-3"/>
    </clipPath>
    <clipPath id="clip-4">
      <use xlink:href="#fill-4"/>
    </clipPath>
    <clipPath id="clip-5">
      <use xlink:href="#fill-5"/>
    </clipPath>
  </defs>
  <g id="组_1500" data-name="组 1500" transform="translate(-254.971 -212)">
    <g id="组_1498" data-name="组 1498" transform="translate(123.732 87.633)">
      <path id="路径_513" data-name="路径 513" d="M157.451,142.346s-2.024-.658-2.781.353c0,0-2.877-2.733-5.752-.863a24.145,24.145,0,0,0-.456-8.574s.3-.856,1.01-.4,3.532,1.059,4.237-.908c.8-.966,1-3.07-1.816-4.083s-5.851,1.62-6.079,2.2-4.571,7.378-3.814,14.342c0,0-1.565,2.168.4,3.079s2.422.3,2.422.3.5,2.877,6.306,2.624c0,0,.234,1.184,2.313,1.562l2.48-1.36,1.819-7.721Z" transform="translate(0 0)" fill="#ff7517"/>
      <path id="路径_514" data-name="路径 514" d="M321.108,545.691h-3.227s-.645,7.673-4.558,10.255h2.906a.545.545,0,0,0,.481-.289l4.882-9.161A.551.551,0,0,0,321.108,545.691ZM309.384,544.6s-2.075,1.318-2.284,2.64c0,0,.164-.494,2.194-1.816m4.029,7.464a2.888,2.888,0,0,1-1.27,1.9,1.67,1.67,0,0,1-.539-.786A3.6,3.6,0,0,0,313.323,552.889Z" transform="translate(-160.373 -403.589)" fill="#1c1c1c"/>
    </g>
    <g id="组_1374" data-name="组 1374" transform="translate(283.762 211.729)">
      <g id="矩形_277" data-name="矩形 277" transform="translate(0 1.958) rotate(-30)" fill="#ffd101" stroke="#ff5050" stroke-width="1">
        <rect id="fill" width="0.812" height="1.962" rx="0.406" stroke="none"/>
        <path d="M0,0.5h0.8118577599525452M0.5,0v1.9619895219802856M0.8118577599525452,1.4619895219802856h-0.8118577599525452M0.31185775995254517,1.9619895219802856v-1.9619895219802856" fill="none" clip-path="url(#clip)"/>
      </g>
      <g id="矩形_278" data-name="矩形 278" transform="translate(3.238 0.271)" fill="#ffd101" stroke="#ff5050" stroke-width="1">
        <rect id="fill-2" height="3" stroke="none"/>
        <path d="M0,0.5h0.000010000005204346962M0.5,0v3M0.000010000005204346962,2.5h-0.000010000005204346962M-0.49998999999479565,3v-3" fill="none" clip-path="url(#clip-2)"/>
      </g>
      <g id="矩形_279" data-name="矩形 279" transform="matrix(0.848, 0.53, -0.53, 0.848, 5.348, 1.558)" fill="#ffd101" stroke="#ff5050" stroke-width="1">
        <rect id="fill-3" width="0.812" height="1.962" rx="0.406" stroke="none"/>
        <path d="M0,0.5h0.8118577599525452M0.5,0v1.9619895219802856M0.8118577599525452,1.4619895219802856h-0.8118577599525452M0.31185775995254517,1.9619895219802856v-1.9619895219802856" fill="none" clip-path="url(#clip-3)"/>
      </g>
      <g id="矩形_280" data-name="矩形 280" transform="translate(7.196 2.831) rotate(47)" fill="#ffd101" stroke="#ff5050" stroke-width="1">
        <rect id="fill-4" width="0.812" height="2.842" rx="0.406" stroke="none"/>
        <path d="M0,0.5h0.8118577599525452M0.5,0v2.8415019512176514M0.8118577599525452,2.3415019512176514h-0.8118577599525452M0.31185775995254517,2.8415019512176514v-2.8415019512176514" fill="none" clip-path="url(#clip-4)"/>
      </g>
      <g id="矩形_281" data-name="矩形 281" transform="translate(7.698 5.903) rotate(87)" fill="#ffd101" stroke="#ff5050" stroke-width="1">
        <rect id="fill-5" width="0.812" height="1.827" rx="0.406" stroke="none"/>
        <path d="M0,0.5h0.8118577599525452M0.5,0v1.8266797065734863M0.8118577599525452,1.3266797065734863h-0.8118577599525452M0.31185775995254517,1.8266797065734863v-1.8266797065734863" fill="none" clip-path="url(#clip-5)"/>
      </g>
    </g>
    <g id="组_1375" data-name="组 1375" transform="translate(254.971 236.03)">
      <g id="路径_421" data-name="路径 421" transform="translate(10.845 5.464) rotate(150)" fill="#ffd101">
        <path d="M.44,0A.578.578,0,0,1,.963.476L1.086,1.7a.366.366,0,0,1-.438.388.578.578,0,0,1-.524-.474L0,.39A.366.366,0,0,1,.44,0Z" stroke="none"/>
        <path d="M 0.3912201523780823 -3.337860107421875e-06 C 0.4070385098457336 -3.337860107421875e-06 0.4231415987014771 0.0007162094116210938 0.439525306224823 0.002187967300415039 C 0.7050353288650513 0.02604794502258301 0.9396153092384338 0.2382979393005371 0.9634753465652466 0.47626793384552 L 1.085865378379822 1.69704794883728 C 1.108253002166748 1.920324325561523 0.9371407628059387 2.08691930770874 0.6966105699539185 2.08691930770874 C 0.6807920932769775 2.08691930770874 0.6646890640258789 2.086199760437012 0.6483052968978882 2.084728002548218 C 0.3827953338623047 2.06086802482605 0.1482153534889221 1.848618030548096 0.1243553161621094 1.610647916793823 L 0.00196528434753418 0.3898680210113525 C -0.02042233943939209 0.1665916442871094 0.1506898999214172 -3.337860107421875e-06 0.3912201523780823 -3.337860107421875e-06 Z" stroke="none" fill="#ff5050"/>
      </g>
      <g id="矩形_278-2" data-name="矩形 278" transform="translate(6.566 3.784)" fill="#ffd101" stroke="#ff5050" stroke-width="1">
        <rect width="1.011" height="3.044" rx="0.506" stroke="none"/>
        <rect x="0.5" y="0.5" width="0.011" height="2.044" rx="0.006" fill="none"/>
      </g>
      <g id="路径_422" data-name="路径 422" transform="matrix(-0.469, -0.883, 0.883, -0.469, 3.304, 5.775)" fill="#ffd101">
        <path d="M.582,0A.37.37,0,0,1,.968.444l-.11,1.29a.573.573,0,0,1-.469.525A.37.37,0,0,1,0,1.817L.112.527A.573.573,0,0,1,.582,0Z" stroke="none"/>
        <path d="M 0.6183479428291321 7.152557373046875e-07 C 0.8355898857116699 7.152557373046875e-07 0.9897616505622864 0.1910583972930908 0.9681233167648315 0.444143533706665 L 0.8578533530235291 1.73400354385376 C 0.8350133299827576 2.001143455505371 0.6249133348464966 2.236213445663452 0.3885833024978638 2.259053468704224 C 0.3761494755744934 2.260255098342896 0.3638630509376526 2.260846376419067 0.3517987132072449 2.260846376419067 C 0.134556770324707 2.260846376419067 -0.01961499452590942 2.069788694381714 0.00202333927154541 1.81670355796814 L 0.1122933030128479 0.5268435478210449 C 0.1351333260536194 0.2597036361694336 0.3452333211898804 0.02463364601135254 0.5815633535385132 0.001793622970581055 C 0.5939971804618835 0.0005919933319091797 0.6062836050987244 7.152557373046875e-07 0.6183479428291321 7.152557373046875e-07 Z" stroke="none" fill="#ff5050"/>
      </g>
      <g id="路径_423" data-name="路径 423" transform="matrix(-0.259, -0.966, 0.966, -0.259, 0.254, 3.793)" fill="#ffd101">
        <path d="M.592,0A.405.405,0,0,1,.98.475L.826,3.552a.528.528,0,0,1-.438.524A.405.405,0,0,1,0,3.6L.155.525A.528.528,0,0,1,.592,0Z" stroke="none"/>
        <path d="M 0.6130231618881226 2.86102294921875e-06 C 0.8305028676986694 2.86102294921875e-06 0.9931250810623169 0.2076022624969482 0.9797698259353638 0.4746978282928467 L 0.8259798288345337 3.551907777786255 C 0.8122098445892334 3.827487707138062 0.6163098812103271 4.062067985534668 0.3884298205375671 4.0758376121521 C 0.3814062476158142 4.076262474060059 0.3744330406188965 4.076472759246826 0.3675165176391602 4.076472759246826 C 0.1500368118286133 4.076472759246826 -0.01258540153503418 3.868873357772827 0.0007698535919189453 3.601777791976929 L 0.154559850692749 0.5245678424835205 C 0.1683298349380493 0.2489778995513916 0.3642298579216003 0.01440763473510742 0.5921097993850708 0.0006380081176757812 C 0.5991334319114685 0.0002131462097167969 0.6061066389083862 2.86102294921875e-06 0.6130231618881226 2.86102294921875e-06 Z" stroke="none" fill="#ff5050"/>
      </g>
      <g id="路径_424" data-name="路径 424" transform="translate(0.802 0.943) rotate(-93)" fill="#ffd101">
        <path d="M.424,0a.451.451,0,0,1,.4.5L.812,1.764A.477.477,0,0,1,.4,2.274a.451.451,0,0,1-.4-.5L.013.511A.477.477,0,0,1,.424,0Z" stroke="none"/>
        <path d="M 0.4287590682506561 -1.668930053710938e-06 C 0.6511042714118958 -1.668930053710938e-06 0.8283333778381348 0.2228677272796631 0.8254716992378235 0.5002259016036987 L 0.8124316930770874 1.763775825500488 C 0.8095516562461853 2.042905807495117 0.6253616809844971 2.271525859832764 0.4010216891765594 2.274405956268311 C 0.3995976448059082 2.274424076080322 0.398164689540863 2.274433374404907 0.3967442810535431 2.274433374404907 C 0.1743990778923035 2.274433374404907 -0.002830028533935547 2.05156397819519 3.165006637573242e-05 1.774205923080444 L 0.01307165622711182 0.5106558799743652 C 0.01595169305801392 0.2315258979797363 0.2001416683197021 0.002905845642089844 0.4244816601276398 2.574920654296875e-05 C 0.425905704498291 7.62939453125e-06 0.4273386597633362 -1.668930053710938e-06 0.4287590682506561 -1.668930053710938e-06 Z" stroke="none" fill="#ff5050"/>
      </g>
    </g>
  </g>
</svg>
