<svg xmlns="http://www.w3.org/2000/svg" xmlns:xlink="http://www.w3.org/1999/xlink" width="30.471" height="23.859" viewBox="0 0 30.471 23.859">
  <defs>
    <clipPath id="clip">
      <use xlink:href="#fill"/>
    </clipPath>
    <clipPath id="clip-2">
      <use xlink:href="#fill-2"/>
    </clipPath>
    <clipPath id="clip-3">
      <use xlink:href="#fill-3"/>
    </clipPath>
    <clipPath id="clip-4">
      <use xlink:href="#fill-4"/>
    </clipPath>
    <clipPath id="clip-5">
      <use xlink:href="#fill-5"/>
    </clipPath>
  </defs>
  <g id="组_1501" data-name="组 1501" transform="translate(-259.971 -215)">
    <g id="组_1495" data-name="组 1495" transform="translate(259.971 215)">
      <g id="组_1374" data-name="组 1374" transform="translate(22.721 0)">
        <g id="矩形_277" data-name="矩形 277" transform="translate(0 1.958) rotate(-30)" fill="#ffd101" stroke="#ff5050" stroke-width="1">
          <rect id="fill" width="0.812" height="1.962" rx="0.406" stroke="none"/>
          <path d="M0,0.5h0.8118577599525452M0.5,0v1.9619895219802856M0.8118577599525452,1.4619895219802856h-0.8118577599525452M0.31185775995254517,1.9619895219802856v-1.9619895219802856" fill="none" clip-path="url(#clip)"/>
        </g>
        <g id="矩形_278" data-name="矩形 278" transform="translate(3.308)" fill="#ffd101" stroke="#ff5050" stroke-width="1">
          <rect id="fill-2" height="3" stroke="none"/>
          <path d="M0,0.5h0.000010000005204346962M0.5,0v3M0.000010000005204346962,2.5h-0.000010000005204346962M-0.49998999999479565,3v-3" fill="none" clip-path="url(#clip-2)"/>
        </g>
        <g id="矩形_279" data-name="矩形 279" transform="matrix(0.848, 0.53, -0.53, 0.848, 5.348, 1.558)" fill="#ffd101" stroke="#ff5050" stroke-width="1">
          <rect id="fill-3" width="0.812" height="1.962" rx="0.406" stroke="none"/>
          <path d="M0,0.5h0.8118577599525452M0.5,0v1.9619895219802856M0.8118577599525452,1.4619895219802856h-0.8118577599525452M0.31185775995254517,1.9619895219802856v-1.9619895219802856" fill="none" clip-path="url(#clip-3)"/>
        </g>
        <g id="矩形_280" data-name="矩形 280" transform="translate(7.196 2.831) rotate(47)" fill="#ffd101" stroke="#ff5050" stroke-width="1">
          <rect id="fill-4" width="0.812" height="2.842" rx="0.406" stroke="none"/>
          <path d="M0,0.5h0.8118577599525452M0.5,0v2.8415019512176514M0.8118577599525452,2.3415019512176514h-0.8118577599525452M0.31185775995254517,2.8415019512176514v-2.8415019512176514" fill="none" clip-path="url(#clip-4)"/>
        </g>
        <g id="矩形_281" data-name="矩形 281" transform="translate(7.698 5.903) rotate(87)" fill="#ffd101" stroke="#ff5050" stroke-width="1">
          <rect id="fill-5" width="0.812" height="1.827" rx="0.406" stroke="none"/>
          <path d="M0,0.5h0.8118577599525452M0.5,0v1.8266797065734863M0.8118577599525452,1.3266797065734863h-0.8118577599525452M0.31185775995254517,1.8266797065734863v-1.8266797065734863" fill="none" clip-path="url(#clip-5)"/>
        </g>
      </g>
      <g id="组_1375" data-name="组 1375" transform="translate(0 17.03)">
        <g id="路径_421" data-name="路径 421" transform="translate(10.845 5.464) rotate(150)" fill="#ffd101">
          <path d="M.44,0A.578.578,0,0,1,.963.476L1.086,1.7a.366.366,0,0,1-.438.388.578.578,0,0,1-.524-.474L0,.39A.366.366,0,0,1,.44,0Z" stroke="none"/>
          <path d="M 0.3912201523780823 -3.337860107421875e-06 C 0.4070385098457336 -3.337860107421875e-06 0.4231415987014771 0.0007162094116210938 0.439525306224823 0.002187967300415039 C 0.7050353288650513 0.02604794502258301 0.9396153092384338 0.2382979393005371 0.9634753465652466 0.47626793384552 L 1.085865378379822 1.69704794883728 C 1.108253002166748 1.920324325561523 0.9371407628059387 2.08691930770874 0.6966105699539185 2.08691930770874 C 0.6807920932769775 2.08691930770874 0.6646890640258789 2.086199760437012 0.6483052968978882 2.084728002548218 C 0.3827953338623047 2.06086802482605 0.1482153534889221 1.848618030548096 0.1243553161621094 1.610647916793823 L 0.00196528434753418 0.3898680210113525 C -0.02042233943939209 0.1665916442871094 0.1506898999214172 -3.337860107421875e-06 0.3912201523780823 -3.337860107421875e-06 Z" stroke="none" fill="#ff5050"/>
        </g>
        <g id="矩形_278-2" data-name="矩形 278" transform="translate(6.566 3.784)" fill="#ffd101" stroke="#ff5050" stroke-width="1">
          <rect width="1.011" height="3.044" rx="0.506" stroke="none"/>
          <rect x="0.5" y="0.5" width="0.011" height="2.044" rx="0.006" fill="none"/>
        </g>
        <g id="路径_422" data-name="路径 422" transform="matrix(-0.469, -0.883, 0.883, -0.469, 3.304, 5.775)" fill="#ffd101">
          <path d="M.582,0A.37.37,0,0,1,.968.444l-.11,1.29a.573.573,0,0,1-.469.525A.37.37,0,0,1,0,1.817L.112.527A.573.573,0,0,1,.582,0Z" stroke="none"/>
          <path d="M 0.6183479428291321 7.152557373046875e-07 C 0.8355898857116699 7.152557373046875e-07 0.9897616505622864 0.1910583972930908 0.9681233167648315 0.444143533706665 L 0.8578533530235291 1.73400354385376 C 0.8350133299827576 2.001143455505371 0.6249133348464966 2.236213445663452 0.3885833024978638 2.259053468704224 C 0.3761494755744934 2.260255098342896 0.3638630509376526 2.260846376419067 0.3517987132072449 2.260846376419067 C 0.134556770324707 2.260846376419067 -0.01961499452590942 2.069788694381714 0.00202333927154541 1.81670355796814 L 0.1122933030128479 0.5268435478210449 C 0.1351333260536194 0.2597036361694336 0.3452333211898804 0.02463364601135254 0.5815633535385132 0.001793622970581055 C 0.5939971804618835 0.0005919933319091797 0.6062836050987244 7.152557373046875e-07 0.6183479428291321 7.152557373046875e-07 Z" stroke="none" fill="#ff5050"/>
        </g>
        <g id="路径_423" data-name="路径 423" transform="matrix(-0.259, -0.966, 0.966, -0.259, 0.254, 3.793)" fill="#ffd101">
          <path d="M.592,0A.405.405,0,0,1,.98.475L.826,3.552a.528.528,0,0,1-.438.524A.405.405,0,0,1,0,3.6L.155.525A.528.528,0,0,1,.592,0Z" stroke="none"/>
          <path d="M 0.6130233407020569 2.86102294921875e-06 C 0.8305031061172485 2.86102294921875e-06 0.9931252598762512 0.2076022624969482 0.9797700047492981 0.4746978282928467 L 0.825980007648468 3.551907777786255 C 0.8122100234031677 3.827487707138062 0.6163100004196167 4.062067985534668 0.3884299993515015 4.0758376121521 C 0.3814064264297485 4.076262474060059 0.3744332194328308 4.076472759246826 0.3675166964530945 4.076472759246826 C 0.1500369906425476 4.076472759246826 -0.01258522272109985 3.868873357772827 0.0007700324058532715 3.601777791976929 L 0.1545600295066833 0.5245678424835205 C 0.1683300137519836 0.2489778995513916 0.3642300367355347 0.01440763473510742 0.5921100378036499 0.0006380081176757812 C 0.5991336107254028 0.0002131462097167969 0.6061068177223206 2.86102294921875e-06 0.6130233407020569 2.86102294921875e-06 Z" stroke="none" fill="#ff5050"/>
        </g>
        <g id="路径_424" data-name="路径 424" transform="translate(0.802 0.943) rotate(-93)" fill="#ffd101">
          <path d="M.424,0a.451.451,0,0,1,.4.5L.812,1.764A.477.477,0,0,1,.4,2.274a.451.451,0,0,1-.4-.5L.013.511A.477.477,0,0,1,.424,0Z" stroke="none"/>
          <path d="M 0.4287590086460114 -1.668930053710938e-06 C 0.651104211807251 -1.668930053710938e-06 0.82833331823349 0.2228677272796631 0.8254716396331787 0.5002259016036987 L 0.8124316334724426 1.763775825500488 C 0.8095515966415405 2.042905807495117 0.6253616213798523 2.271525859832764 0.4010216295719147 2.274405956268311 C 0.3995975852012634 2.274424076080322 0.3981646299362183 2.274433374404907 0.3967442214488983 2.274433374404907 C 0.1743990182876587 2.274433374404907 -0.002830088138580322 2.05156397819519 3.159046173095703e-05 1.774205923080444 L 0.01307159662246704 0.5106558799743652 C 0.01595163345336914 0.2315258979797363 0.2001416087150574 0.002905845642089844 0.424481600522995 2.574920654296875e-05 C 0.4259056448936462 7.62939453125e-06 0.4273386001586914 -1.668930053710938e-06 0.4287590086460114 -1.668930053710938e-06 Z" stroke="none" fill="#ff5050"/>
        </g>
      </g>
    </g>
    <g id="组_1494" data-name="组 1494" transform="translate(263.898 217.701)">
      <path id="路径_459" data-name="路径 459" d="M186.161,283.952c0-4.524-3.773-6.452-8.431-6.452s-8.431,1.929-8.431,6.452,2.7,8.192,8.431,8.192S186.161,288.479,186.161,283.952Z" transform="translate(-169.3 -275.171)" fill="#ff5a5a"/>
      <path id="路径_460" data-name="路径 460" d="M300.89,310.5a5.735,5.735,0,0,0-3.718-5.6c.273,1.188,1.485,3.209-1.733,8.217a9.434,9.434,0,0,1-7.739,4.446,9.447,9.447,0,0,0,4.763,1.135C298.192,318.695,300.89,315.03,300.89,310.5Z" transform="translate(-284.029 -301.722)" fill="#ef3c3c"/>
      <path id="路径_461" data-name="路径 461" d="M332.742,205.4a5.574,5.574,0,0,0-3-.664,4.2,4.2,0,0,1,.527-1.829c.245-.31-.571-.8-.971-.282a4.55,4.55,0,0,0-.682,2.111c-1.814.068-2.921.468-3.032.775-.121.338,1.4.654,1.4.654s-1.4.843-1.091,1.274,2.18-.282,2.18-.282.741,1.724,1.091,1.724,1.091-1.724,1.091-1.724,2.031.561,2.18.282-1.091-1.271-1.091-1.271S332.863,205.617,332.742,205.4Z" transform="translate(-320.733 -202.396)" fill="#61b150"/>
      <path id="路径_462" data-name="路径 462" d="M230.637,388.995a.278.278,0,0,1-.233-.124,6.854,6.854,0,0,1-.657-5.255.278.278,0,0,1,.536.146,6.253,6.253,0,0,0,.583,4.8.28.28,0,0,1-.077.388A.266.266,0,0,1,230.637,388.995Zm-.074-6.266a.282.282,0,0,1-.161-.05.279.279,0,0,1-.068-.388c.04-.056.078-.109.121-.158a.28.28,0,0,1,.431.357q-.047.056-.093.121A.291.291,0,0,1,230.562,382.728Z" transform="translate(-227.638 -376.462)" fill="#fff"/>
      <path id="路径_463" data-name="路径 463" d="M441.8,206.165a1.147,1.147,0,0,0-.546-.285,7.458,7.458,0,0,0-1.281-.276c-.347-.047-.741-.084-1.175-.1a4.2,4.2,0,0,1,.527-1.829c.14-.177-.062-.409-.338-.484a6.588,6.588,0,0,0-.769,2.521c-.053.372,2.285.115,2.375.412.04.133-.558.239-.716.5s.1.664,0,.766c-.2.2-1.556-.316-1.587-.093a5.205,5.205,0,0,0-.071,2.36c.347,0,1.091-1.724,1.091-1.724s2.031.561,2.18.282-1.088-1.274-1.088-1.274S441.926,206.385,441.8,206.165Z" transform="translate(-429.796 -203.163)" fill="#559e43"/>
      <path id="路径_464" data-name="路径 464" d="M506.567,392.52c0,3.944-3.854,7.138-7.8,7.138a7.426,7.426,0,0,1-7.469-7.138,5.364,5.364,0,0,1,2.4-5.029c2.025-1.38,4.387-.2,5.361-.062s2.279-1.132,4.682-.028S506.567,390.514,506.567,392.52Z" transform="translate(-481.316 -381.11)" fill="#f73746"/>
      <path id="路径_465" data-name="路径 465" d="M551.135,440.358v-2.67s1.77-.245,1.743-1.845-1.743-1.47-1.743-1.47v-3.029a3.519,3.519,0,0,1,2.744.146c1.888.868,2.217,2.443,2.217,4.022,0,2.71-2.319,4.973-4.976,5.5Zm-1.823-.074v-2.425a2.163,2.163,0,0,1-1.7-2.053,1.457,1.457,0,0,1,1.7-1.488v-3.035a3.865,3.865,0,0,0-3.324.276,4.219,4.219,0,0,0-1.888,3.953,5.812,5.812,0,0,0,5.212,5.572Z" transform="translate(-532.479 -423.947)" fill="#fc9795"/>
      <path id="路径_466" data-name="路径 466" d="M821.1,491.183l.245-.583" transform="translate(-800.89 -481.664)" fill="#f84323"/>
      <path id="路径_467" data-name="路径 467" d="M812.381,482.84a.272.272,0,0,1-.108-.022.279.279,0,0,1-.149-.366l.245-.58a.279.279,0,0,1,.515.217l-.245.58A.279.279,0,0,1,812.381,482.84Z" transform="translate(-792.171 -473.042)" fill="#fff"/>
      <path id="路径_468" data-name="路径 468" d="M850.7,535.675l.732-.375" transform="translate(-829.573 -524.978)" fill="#f84323"/>
      <path id="路径_469" data-name="路径 469" d="M842.076,527.23a.279.279,0,0,1-.127-.527l.729-.375a.279.279,0,1,1,.254.5l-.729.375A.284.284,0,0,1,842.076,527.23Z" transform="translate(-820.945 -516.254)" fill="#fff"/>
      <path id="路径_470" data-name="路径 470" d="M855.5,607.2l.9.226" transform="translate(-834.224 -594.649)" fill="#f84323"/>
      <path id="路径_471" data-name="路径 471" d="M847.674,598.981a.26.26,0,0,1-.068-.009l-.9-.226a.278.278,0,1,1,.136-.54l.9.226a.279.279,0,0,1-.068.549Z" transform="translate(-825.499 -585.924)" fill="#fff"/>
      <path id="路径_472" data-name="路径 472" d="M831.2,650.8l.384.636" transform="translate(-810.677 -636.897)" fill="#f84323"/>
      <path id="路径_473" data-name="路径 473" d="M822.856,642.889a.278.278,0,0,1-.239-.137l-.385-.636a.28.28,0,0,1,.481-.288l.384.636a.281.281,0,0,1-.242.425Z" transform="translate(-801.948 -628.071)" fill="#fff"/>
      <path id="路径_474" data-name="路径 474" d="M656.915,484.3l-.415-.8" transform="translate(-641.394 -474.784)" fill="#f84323"/>
      <path id="路径_475" data-name="路径 475" d="M648.17,475.837a.278.278,0,0,1-.248-.152l-.415-.8a.278.278,0,1,1,.493-.257l.416.8a.277.277,0,0,1-.118.375A.269.269,0,0,1,648.17,475.837Z" transform="translate(-632.648 -466.039)" fill="#fff"/>
      <path id="路径_476" data-name="路径 476" d="M602.955,529.275,602,528.9" transform="translate(-588.584 -518.777)" fill="#f84323"/>
      <path id="路径_477" data-name="路径 477" d="M594.221,520.821a.3.3,0,0,1-.1-.019l-.955-.375a.28.28,0,1,1,.2-.521l.955.375a.279.279,0,0,1-.1.54Z" transform="translate(-579.85 -510.043)" fill="#fff"/>
      <path id="路径_478" data-name="路径 478" d="M593.726,593.4l-1.026.13" transform="translate(-579.572 -581.277)" fill="#f84323"/>
      <path id="路径_479" data-name="路径 479" d="M584.011,585.024a.278.278,0,0,1-.276-.245.283.283,0,0,1,.242-.313l1.023-.13a.28.28,0,1,1,.071.555l-1.023.13A.141.141,0,0,1,584.011,585.024Z" transform="translate(-570.883 -572.491)" fill="#fff"/>
      <path id="路径_480" data-name="路径 480" d="M615.716,641.7l-.815.561" transform="translate(-601.084 -628.079)" fill="#f84323"/>
      <path id="路径_481" data-name="路径 481" d="M606.194,633.835a.279.279,0,0,1-.158-.509l.815-.561a.279.279,0,1,1,.316.459l-.815.561A.266.266,0,0,1,606.194,633.835Z" transform="translate(-592.378 -619.373)" fill="#fff"/>
    </g>
  </g>
</svg>
