<svg xmlns="http://www.w3.org/2000/svg" width="27.982" height="28.261" viewBox="0 0 27.982 28.261">
  <g id="组_1497" data-name="组 1497" transform="translate(-117.033 -116.492)">
    <path id="路径_498" data-name="路径 498" d="M135.6,188.935a8.61,8.61,0,1,1,1.458-1.483l1.091,1.091a6.723,6.723,0,0,1,3.156.828,13.226,13.226,0,1,0-3.675,3.747,20.423,20.423,0,0,1-1.027-3.181l-1-1Z" transform="translate(0 -50.641)" fill="#f92537"/>
    <path id="路径_499" data-name="路径 499" d="M377.5,430.682a1.036,1.036,0,1,1,1.463-1.463l.005-.006,2.678,2.678a4.026,4.026,0,1,0-1.444,1.5Z" transform="translate(-247.915 -298.407)" fill="#f92537"/>
    <path id="路径_500" data-name="路径 500" d="M543.82,593.355l3.311,3.311a8.5,8.5,0,0,0,1.455-1.483l-3.324-3.324A4.008,4.008,0,0,1,543.82,593.355Z" transform="translate(-411.529 -458.371)" fill="#d3d3d3"/>
    <path id="路径_501" data-name="路径 501" d="M470.837,516a6.714,6.714,0,0,0-3.156-.828l-1.091-1.091a8.8,8.8,0,0,1-1.455,1.483l1.005,1.005a20.743,20.743,0,0,0,1.027,3.181A13.258,13.258,0,0,0,470.837,516Zm-7.568-5.244-2.678-2.678-.005.005a1.036,1.036,0,1,0-1.463,1.463l2.706,2.706A4.01,4.01,0,0,0,463.268,510.759Z" transform="translate(-329.536 -377.272)" fill="#c21f2d"/>
    <path id="路径_502" data-name="路径 502" d="M460.134,506.01m-1.038,0a1.038,1.038,0,1,0,1.038-1.038A1.038,1.038,0,0,0,459.1,506.01Z" transform="translate(-329.834 -374.591)" fill="#fed05a"/>
    <path id="路径_503" data-name="路径 503" d="M700.911,250.848s5.232-1.085,6.815-3.529l-.064-.458-3.844.494Z" transform="translate(-563.003 -125.708)" fill="#5e3483"/>
    <path id="路径_504" data-name="路径 504" d="M756.673,119.62c.061-.064.124-.13.188-.193A.659.659,0,0,0,756.673,119.62Z" transform="translate(-616.772 -2.83)" fill="#4c2371"/>
    <path id="路径_505" data-name="路径 505" d="M758.47,120.435h-3.308v-3.308a.637.637,0,0,0-.635-.635.629.629,0,0,0-.348.1c-.064.064-.127.13-.188.193a.635.635,0,0,0-.1.337v3.943a.637.637,0,0,0,.635.635h3.943a.635.635,0,0,0,0-1.27Z" transform="translate(-614.091 0)" fill="#4c2371"/>
    <path id="路径_506" data-name="路径 506" d="M669.832,122.13s-3.52,4.02-3.308,6.925l.326.326,2.769-2.711Z" transform="translate(-529.837 -5.436)" fill="#5e3483"/>
    <path id="路径_507" data-name="路径 507" d="M478.745,222.034l1.468,1.468-10.389,10.389-1.468-1.468Z" transform="translate(-338.763 -101.769)" fill="#fed05a"/>
    <path id="路径_508" data-name="路径 508" d="M750.065,216m-1.038,0a1.038,1.038,0,1,0,1.038-1.038A1.038,1.038,0,0,0,749.027,216Z" transform="translate(-609.399 -94.951)" fill="#be7b47"/>
  </g>
</svg>
